<svg width="1200" height="630" viewBox="0 0 1200 630" xmlns="http://www.w3.org/2000/svg">
  <!-- Background -->
  <rect width="1200" height="630" fill="#09090b"/>
  
  <!-- Gradient overlay -->
  <defs>
    <linearGradient id="grad1" x1="0%" y1="0%" x2="100%" y2="100%">
      <stop offset="0%" style="stop-color:#3b82f6;stop-opacity:0.1" />
      <stop offset="100%" style="stop-color:#a855f7;stop-opacity:0.1" />
    </linearGradient>
  </defs>
  <rect width="1200" height="630" fill="url(#grad1)"/>
  
  <!-- Left side: Code motif -->
  <g opacity="0.4">
    <!-- Simulated code lines -->
    <rect x="60" y="120" width="280" height="8" rx="4" fill="#ef4444"/>
    <rect x="60" y="150" width="220" height="8" rx="4" fill="#52525b"/>
    <rect x="60" y="180" width="260" height="8" rx="4" fill="#52525b"/>
    <rect x="60" y="210" width="180" height="8" rx="4" fill="#52525b"/>
    <rect x="60" y="240" width="240" height="8" rx="4" fill="#52525b"/>
    <rect x="60" y="270" width="200" height="8" rx="4" fill="#22c55e"/>
    <rect x="60" y="300" width="260" height="8" rx="4" fill="#22c55e"/>
    <rect x="60" y="330" width="220" height="8" rx="4" fill="#52525b"/>
    <rect x="60" y="360" width="240" height="8" rx="4" fill="#52525b"/>
    <rect x="60" y="390" width="190" height="8" rx="4" fill="#52525b"/>
  </g>
  
  <!-- Center divider -->
  <line x1="420" y1="150" x2="420" y2="480" stroke="#3f3f46" stroke-width="2"/>
  
  <!-- Main content -->
  <g>
    <!-- Icon: Merge symbol -->
    <g transform="translate(480, 140)">
      <path d="M 20 0 L 40 20 L 20 40 L 0 20 Z" fill="#3b82f6" opacity="0.2"/>
      <path d="M 20 0 L 40 20 L 20 40 L 0 20 Z" fill="none" stroke="#3b82f6" stroke-width="2"/>
    </g>
    
    <!-- Title -->
    <text x="540" y="180" font-family="system-ui, -apple-system, sans-serif" font-size="72" font-weight="bold" fill="#e4e4e7">
      Code Hygiene
    </text>
    
    <!-- Subtitle -->
    <text x="540" y="240" font-family="system-ui, -apple-system, sans-serif" font-size="32" fill="#a1a1aa">
      Interactive Merge Conflict Game
    </text>
    
    <!-- Description lines -->
    <text x="540" y="310" font-family="system-ui, -apple-system, sans-serif" font-size="24" fill="#e4e4e7">
      🎮 Learn code quality through gameplay
    </text>
    <text x="540" y="355" font-family="system-ui, -apple-system, sans-serif" font-size="24" fill="#e4e4e7">
      🧪 Choose between fragile patches
    </text>
    <text x="540" y="400" font-family="system-ui, -apple-system, sans-serif" font-size="24" fill="#e4e4e7">
      ✨ and hygienic fixes
    </text>
    
    <!-- Bottom badge -->
    <rect x="540" y="450" width="280" height="50" rx="8" fill="#18181b" stroke="#3f3f46" stroke-width="2"/>
    <text x="680" y="483" font-family="system-ui, -apple-system, sans-serif" font-size="20" fill="#a1a1aa" text-anchor="middle">
      Built with React + TypeScript
    </text>
  </g>
</svg>
